<?xml version="1.0" encoding="iso-8859-1"?>
<!-- Generator: Adobe Illustrator 19.0.0, SVG Export Plug-In . SVG Version: 6.00 Build 0)  -->
<svg xmlns="http://www.w3.org/2000/svg" xmlns:xlink="http://www.w3.org/1999/xlink" version="1.1" id="Layer_1" x="0px" y="0px" viewBox="0 0 512 512" style="enable-background:new 0 0 512 512;" xml:space="preserve" width="100px" height="100px">
<g id="SVGCleanerId_0">
	<g>
		<path d="M256,418.34c-7.919,0-14.342,6.421-14.342,14.342v64.977c0,7.921,6.422,14.342,14.342,14.342s14.342-6.421,14.342-14.342    v-64.977C270.342,424.761,263.919,418.34,256,418.34z" fill="#f2f1ef"/>
	</g>
</g>
<g id="SVGCleanerId_1">
	<g>
		<path d="M256,0c-7.919,0-14.342,6.421-14.342,14.342v64.977c0,7.921,6.422,14.342,14.342,14.342s14.342-6.421,14.342-14.342    V14.342C270.342,6.421,263.919,0,256,0z" fill="#f2f1ef"/>
	</g>
</g>
<g>
	<g>
		<path d="M174.83,396.592c-6.863-3.96-15.63-1.611-19.591,5.249l-32.488,56.271c-3.961,6.86-1.611,15.631,5.249,19.591    c2.259,1.304,4.724,1.923,7.157,1.923c4.956,0,9.778-2.573,12.434-7.172l32.488-56.271    C184.04,409.323,181.69,400.552,174.83,396.592z" fill="#f2f1ef"/>
	</g>
</g>
<g>
	<g>
		<path d="M384,34.3c-6.862-3.961-15.63-1.611-19.591,5.249L331.921,95.82c-3.961,6.86-1.611,15.631,5.249,19.591    c2.259,1.304,4.724,1.923,7.157,1.923c4.956,0,9.777-2.573,12.434-7.172l32.488-56.271C393.21,47.031,390.86,38.259,384,34.3z" fill="#f2f1ef"/>
	</g>
</g>
<g>
	<g>
		<path d="M115.408,337.17c-3.96-6.858-12.731-9.21-19.591-5.249l-56.271,32.488c-6.86,3.96-9.21,12.731-5.249,19.591    c2.658,4.601,7.476,7.172,12.434,7.172c2.432,0,4.899-0.62,7.156-1.923l56.271-32.488    C117.019,352.801,119.369,344.03,115.408,337.17z" fill="#f2f1ef"/>
	</g>
</g>
<g>
	<g>
		<path d="M477.702,128c-3.961-6.858-12.731-9.209-19.591-5.249l-56.271,32.488c-6.86,3.96-9.21,12.731-5.249,19.591    c2.658,4.601,7.476,7.172,12.434,7.172c2.434,0,4.899-0.62,7.156-1.923l56.271-32.488C479.312,143.631,481.663,134.86,477.702,128    z" fill="#f2f1ef"/>
	</g>
</g>
<g>
	<g>
		<path d="M79.318,241.658H14.342C6.422,241.658,0,248.079,0,256c0,7.921,6.422,14.342,14.342,14.342h64.977    c7.919,0,14.342-6.421,14.342-14.342C93.66,248.079,87.238,241.658,79.318,241.658z" fill="#f2f1ef"/>
	</g>
</g>
<g>
	<g>
		<path d="M497.658,241.658h-64.977c-7.919,0-14.342,6.421-14.342,14.342c0,7.921,6.422,14.342,14.342,14.342h64.977    c7.919,0,14.342-6.421,14.342-14.342C512,248.079,505.578,241.658,497.658,241.658z" fill="#f2f1ef"/>
	</g>
</g>
<g>
	<g>
		<path d="M110.159,155.239l-56.271-32.488c-6.861-3.961-15.631-1.611-19.591,5.249c-3.961,6.86-1.611,15.631,5.249,19.591    l56.273,32.488c2.259,1.304,4.724,1.923,7.156,1.923c4.957,0,9.778-2.571,12.433-7.172    C119.369,167.97,117.019,159.199,110.159,155.239z" fill="#f2f1ef"/>
	</g>
</g>
<g>
	<g>
		<path d="M472.454,364.409l-56.271-32.488c-6.862-3.961-15.631-1.609-19.591,5.249c-3.961,6.86-1.611,15.631,5.249,19.591    l56.271,32.488c2.259,1.304,4.724,1.923,7.156,1.923c4.957,0,9.778-2.571,12.434-7.172    C481.664,377.14,479.314,368.369,472.454,364.409z" fill="#f2f1ef"/>
	</g>
</g>
<g>
	<g>
		<path d="M180.079,95.819l-32.488-56.271c-3.961-6.86-12.731-9.21-19.591-5.249c-6.86,3.96-9.21,12.731-5.249,19.591l32.488,56.273    c2.658,4.601,7.476,7.172,12.434,7.172c2.432,0,4.899-0.621,7.157-1.925C181.69,111.45,184.04,102.678,180.079,95.819z" fill="#f2f1ef"/>
	</g>
</g>
<g>
	<g>
		<path d="M389.249,458.112l-32.488-56.271c-3.961-6.858-12.73-9.21-19.591-5.249c-6.86,3.96-9.21,12.731-5.249,19.591    l32.488,56.271c2.657,4.601,7.476,7.172,12.434,7.172c2.432,0,4.899-0.62,7.157-1.923    C390.86,473.743,393.21,464.972,389.249,458.112z" fill="#f2f1ef"/>
	</g>
</g>
<g>
	<g>
		<path d="M256,0c-7.919,0-14.342,6.421-14.342,14.342v64.977c0,7.921,6.422,14.342,14.342,14.342s14.342-6.421,14.342-14.342    V14.342C270.342,6.421,263.919,0,256,0z" fill="#f2f1ef"/>
	</g>
</g>
<g>
	<g>
		<path d="M256,418.34c-7.919,0-14.342,6.421-14.342,14.342v64.977c0,7.921,6.422,14.342,14.342,14.342s14.342-6.421,14.342-14.342    v-64.977C270.342,424.761,263.919,418.34,256,418.34z" fill="#f2f1ef"/>
	</g>
</g>
<g>
</g>
<g>
</g>
<g>
</g>
<g>
</g>
<g>
</g>
<g>
</g>
<g>
</g>
<g>
</g>
<g>
</g>
<g>
</g>
<g>
</g>
<g>
</g>
<g>
</g>
<g>
</g>
<g>
</g>
</svg>
